# xmcd
#
# Track frame offsets:
# 182
# 14872
# 26712
# 36825
# 52362
# 62305
# 76770
# 87547
# 102692
# 113632
# 123665
# 138737
# 147132
# 161175
#
# Disc length: 2294 seconds
#
#
# Revision: 1
# Processed by: cddbd v1.5.2PL0 Copyright (c) Steve Scherf et al.
# Submitted via: FreeRIP 2.90 
#
DISCID=d008f40e
DTITLE=Peppino Di Capri - Roberta e altri successi
DYEAR=1997
DGENRE=Pop
TTITLE0=Roberta
TTITLE1=Addio mondo crudere
TTITLE2=Ch'aggia 'a ffa
TTITLE3=Solitudine
TTITLE4=Donna
TTITLE5=Piove
TTITLE6=Marina
TTITLE7=Malattia
TTITLE8=Nessuno
TTITLE9=E' vero
TTITLE10=Let me cry
TTITLE11=Sempre con te
TTITLE12=Vieneme 'nzuonno
TTITLE13=Scetate
EXTD=
EXTT0=
EXTT1=
EXTT2=
EXTT3=
EXTT4=
EXTT5=
EXTT6=
EXTT7=
EXTT8=
EXTT9=
EXTT10=
EXTT11=
EXTT12=
EXTT13=
PLAYORDER=
